ModelForces
version=1
nRows=4
nColumns=199
inDegrees=no

This file contains the forces exerted on a model during a simulation.

A force is a generalized force, meaning that it can be either a force (N) or a torque (Nm).

Units are S.I. units (second, meters, Newtons, ...)
Angles are in degrees.

endheader
time	glut_med1_r	glut_med2_r	glut_med3_r	glut_min1_r	glut_min2_r	glut_min3_r	semimem_r	semiten_r	bifemlh_r	bifemsh_r	sar_r	add_long_r	add_brev_r	add_mag1_r	add_mag2_r	add_mag3_r	tfl_r	pect_r	grac_r	glut_max1_r	glut_max2_r	glut_max3_r	iliacus_r	psoas_r	quad_fem_r	gem_r	peri_r	rect_fem_r	vas_med_r	vas_int_r	vas_lat_r	med_gas_r	lat_gas_r	soleus_r	tib_post_r	flex_dig_r	flex_hal_r	tib_ant_r	per_brev_r	per_long_r	per_tert_r	ext_dig_r	ext_hal_r	glut_med1_l	glut_med2_l	glut_med3_l	glut_min1_l	glut_min2_l	glut_min3_l	semimem_l	semiten_l	bifemlh_l	bifemsh_l	sar_l	add_long_l	add_brev_l	add_mag1_l	add_mag2_l	add_mag3_l	tfl_l	pect_l	grac_l	glut_max1_l	glut_max2_l	glut_max3_l	iliacus_l	psoas_l	quad_fem_l	gem_l	peri_l	rect_fem_l	vas_med_l	vas_int_l	vas_lat_l	med_gas_l	lat_gas_l	soleus_l	tib_post_l	flex_dig_l	flex_hal_l	tib_ant_l	per_brev_l	per_long_l	per_tert_l	ext_dig_l	ext_hal_l	ercspn_r	ercspn_l	intobl_r	intobl_l	extobl_r	extobl_l	femur_lat_meniscii_l.femur_lat_l.force.X	femur_lat_meniscii_l.femur_lat_l.force.Y	femur_lat_meniscii_l.femur_lat_l.force.Z	femur_lat_meniscii_l.femur_lat_l.torque.X	femur_lat_meniscii_l.femur_lat_l.torque.Y	femur_lat_meniscii_l.femur_lat_l.torque.Z	femur_lat_meniscii_l.meniscus_lat_l.force.X	femur_lat_meniscii_l.meniscus_lat_l.force.Y	femur_lat_meniscii_l.meniscus_lat_l.force.Z	femur_lat_meniscii_l.meniscus_lat_l.torque.X	femur_lat_meniscii_l.meniscus_lat_l.torque.Y	femur_lat_meniscii_l.meniscus_lat_l.torque.Z	femur_med_meniscii_l.femur_med_l.force.X	femur_med_meniscii_l.femur_med_l.force.Y	femur_med_meniscii_l.femur_med_l.force.Z	femur_med_meniscii_l.femur_med_l.torque.X	femur_med_meniscii_l.femur_med_l.torque.Y	femur_med_meniscii_l.femur_med_l.torque.Z	femur_med_meniscii_l.meniscus_med_l.force.X	femur_med_meniscii_l.meniscus_med_l.force.Y	femur_med_meniscii_l.meniscus_med_l.force.Z	femur_med_meniscii_l.meniscus_med_l.torque.X	femur_med_meniscii_l.meniscus_med_l.torque.Y	femur_med_meniscii_l.meniscus_med_l.torque.Z	femur_lat_meniscii_r.femur_lat_r.force.X	femur_lat_meniscii_r.femur_lat_r.force.Y	femur_lat_meniscii_r.femur_lat_r.force.Z	femur_lat_meniscii_r.femur_lat_r.torque.X	femur_lat_meniscii_r.femur_lat_r.torque.Y	femur_lat_meniscii_r.femur_lat_r.torque.Z	femur_lat_meniscii_r.meniscus_lat_r.force.X	femur_lat_meniscii_r.meniscus_lat_r.force.Y	femur_lat_meniscii_r.meniscus_lat_r.force.Z	femur_lat_meniscii_r.meniscus_lat_r.torque.X	femur_lat_meniscii_r.meniscus_lat_r.torque.Y	femur_lat_meniscii_r.meniscus_lat_r.torque.Z	femur_med_meniscii_r.femur_med_r.force.X	femur_med_meniscii_r.femur_med_r.force.Y	femur_med_meniscii_r.femur_med_r.force.Z	femur_med_meniscii_r.femur_med_r.torque.X	femur_med_meniscii_r.femur_med_r.torque.Y	femur_med_meniscii_r.femur_med_r.torque.Z	femur_med_meniscii_r.meniscus_med_r.force.X	femur_med_meniscii_r.meniscus_med_r.force.Y	femur_med_meniscii_r.meniscus_med_r.force.Z	femur_med_meniscii_r.meniscus_med_r.torque.X	femur_med_meniscii_r.meniscus_med_r.torque.Y	femur_med_meniscii_r.meniscus_med_r.torque.Z	femur_med_tibia_l.tibia_upper_l.force.X	femur_med_tibia_l.tibia_upper_l.force.Y	femur_med_tibia_l.tibia_upper_l.force.Z	femur_med_tibia_l.tibia_upper_l.torque.X	femur_med_tibia_l.tibia_upper_l.torque.Y	femur_med_tibia_l.tibia_upper_l.torque.Z	femur_med_tibia_l.femur_med_l.force.X	femur_med_tibia_l.femur_med_l.force.Y	femur_med_tibia_l.femur_med_l.force.Z	femur_med_tibia_l.femur_med_l.torque.X	femur_med_tibia_l.femur_med_l.torque.Y	femur_med_tibia_l.femur_med_l.torque.Z	femur_lat_tibia_l.tibia_upper_l.force.X	femur_lat_tibia_l.tibia_upper_l.force.Y	femur_lat_tibia_l.tibia_upper_l.force.Z	femur_lat_tibia_l.tibia_upper_l.torque.X	femur_lat_tibia_l.tibia_upper_l.torque.Y	femur_lat_tibia_l.tibia_upper_l.torque.Z	femur_lat_tibia_l.femur_lat_l.force.X	femur_lat_tibia_l.femur_lat_l.force.Y	femur_lat_tibia_l.femur_lat_l.force.Z	femur_lat_tibia_l.femur_lat_l.torque.X	femur_lat_tibia_l.femur_lat_l.torque.Y	femur_lat_tibia_l.femur_lat_l.torque.Z	femur_med_tibia_r.tibia_upper_r.force.X	femur_med_tibia_r.tibia_upper_r.force.Y	femur_med_tibia_r.tibia_upper_r.force.Z	femur_med_tibia_r.tibia_upper_r.torque.X	femur_med_tibia_r.tibia_upper_r.torque.Y	femur_med_tibia_r.tibia_upper_r.torque.Z	femur_med_tibia_r.femur_med_r.force.X	femur_med_tibia_r.femur_med_r.force.Y	femur_med_tibia_r.femur_med_r.force.Z	femur_med_tibia_r.femur_med_r.torque.X	femur_med_tibia_r.femur_med_r.torque.Y	femur_med_tibia_r.femur_med_r.torque.Z	femur_lat_tibia_r.tibia_upper_r.force.X	femur_lat_tibia_r.tibia_upper_r.force.Y	femur_lat_tibia_r.tibia_upper_r.force.Z	femur_lat_tibia_r.tibia_upper_r.torque.X	femur_lat_tibia_r.tibia_upper_r.torque.Y	femur_lat_tibia_r.tibia_upper_r.torque.Z	femur_lat_tibia_r.femur_lat_r.force.X	femur_lat_tibia_r.femur_lat_r.force.Y	femur_lat_tibia_r.femur_lat_r.force.Z	femur_lat_tibia_r.femur_lat_r.torque.X	femur_lat_tibia_r.femur_lat_r.torque.Y	femur_lat_tibia_r.femur_lat_r.torque.Z	aACL_R	pACL_R	aPCL_R	pPCL_R	aMCL_R	aLCL_R	aPCL_L	pPCL_L	aMCL_L	aLCL_L
      0.00000000	     37.35678184	     44.71148589	    157.49636415	     12.86043706	     14.21185329	     20.59692147	    601.92409798	    160.09160906	    469.94666537	     36.02754664	      6.22831496	     23.21348584	     21.35473560	     31.04355526	     26.30416729	     95.21850838	      0.00000000	      8.17745318	      8.58230530	     27.14408701	     40.82250327	     74.24660416	     25.51924675	     23.78553503	    196.08638436	     40.64708020	     83.68713363	     11.21598310	     32.38176469	     32.82510377	     40.14722941	     67.39492298	     31.74693446	    152.72720615	     92.44658902	     14.93332009	     15.26895791	     41.82851940	     21.62523106	     46.40594865	      8.86060096	     25.04818486	      7.96045570	     37.48087652	     28.28714471	     30.25598133	     13.28977762	     14.47626353	     15.91713841	     42.06683902	     20.39635155	     37.67631238	     36.01822118	      7.59254209	     27.93927808	     20.68957741	     14.51222487	     12.16230296	     19.66717628	     12.58139899	     11.16605282	      7.78214370	     18.12681708	     27.55933735	     20.56469162	     63.94906620	     55.74758807	     18.09791099	      9.16719286	     20.03897647	     52.59637061	     32.48786114	     37.22481259	     39.87514307	     67.71424671	     31.64857027	    152.72720615	     92.44658902	     14.93332009	     15.26895791	     41.82851940	     21.62523106	     46.40594865	      8.86060096	     25.04818486	      7.96045570	    124.99446086	    124.99446086	     44.97041513	     44.97041513	     60.98287244	     60.98287244	      2.76307435	     50.99597937	     -9.56042239	      5.21997485	     -0.02578839	      1.48581788	     -2.76307435	    -50.99597937	      9.56042239	     -1.74637766	      0.02558040	     -0.48301696	     -3.31599387	     20.97615968	     -3.40468921	      0.94473225	     -0.02138609	     -1.00501789	      3.31599387	    -20.97615968	      3.40468921	      0.28075727	      0.00368718	     -0.29758878	     -0.28299363	      0.13243531	      0.00246511	     -0.00349976	     -0.00837665	      0.05534422	      0.28299363	     -0.13243531	     -0.00246511	      0.00419209	      0.00891056	     -0.00454827	     -3.64420958	      0.08239422	      0.29868801	      0.00646305	     -0.04628927	      0.09076941	      3.64420958	     -0.08239422	     -0.29868801	     -0.00624440	     -0.04962961	     -0.06164219	      0.00000000	      0.00000000	      0.00000000	      0.00000000	      0.00000000	      0.00000000	      0.00000000	      0.00000000	      0.00000000	      0.00000000	      0.00000000	      0.00000000	      0.00000000	      0.00000000	      0.00000000	      0.00000000	      0.00000000	      0.00000000	      0.00000000	      0.00000000	      0.00000000	      0.00000000	      0.00000000	      0.00000000	      0.00000000	      0.00000000	      0.00000000	      0.00000000	      0.00000000	      0.00000000	      0.00000000	      0.00000000	      0.00000000	      0.00000000	      0.00000000	      0.00000000	      0.00000000	      0.00000000	      0.00000000	      0.00000000	      0.00000000	      0.00000000	      0.00000000	      0.00000000	      0.00000000	      0.00000000	      0.00000000	      0.00000000	      0.00000000	      0.00000000	      0.00000000	      0.00000003	      0.69784531	      2.05135595	      0.00000000	      0.00000000	    116.99866359	      0.00000000
      0.00089311	     37.34866698	     44.69243681	    157.45381943	     12.84446005	     14.20279519	     20.59252754	    591.01043871	    160.74404007	    464.53361337	     36.94775781	      8.66214431	     23.20381621	     21.31622228	     31.03156024	     26.29692233	     95.20651461	      0.00000000	      8.16917354	      9.94913693	     27.13460122	     40.80823650	     74.22846069	     25.50893966	     23.77901574	    196.03861577	     40.64134340	     83.68244839	      9.55960674	     25.64601567	     26.16270281	     32.75963004	     62.97973278	     29.69167387	    146.47852687	     91.74297559	     14.93018860	     15.20923730	     43.62297224	     21.47002178	     46.12779282	      9.38553816	     25.52729961	      8.13483716	     37.47274325	     28.27361470	     30.24390002	     13.27346069	     14.46708688	     15.91351640	     42.06321124	     20.39144863	     37.67226171	     35.99472040	      7.58147517	     27.92830325	     20.65199483	     14.50536092	     12.15819423	     19.66379377	     12.58055013	     11.15576727	      7.77572197	     18.11960414	     27.54854490	     20.55791366	     63.93045956	     55.73686910	     18.08573759	      9.16552114	     20.03751060	     52.59023477	     32.47893952	     37.21596548	     39.86613951	     67.71067705	     31.64687213	    152.71610309	     92.44379062	     14.93451412	     15.26994633	     41.82274213	     21.62315842	     46.40387832	      8.85841099	     25.04319500	      7.95843537	    124.85189977	    124.85189977	     44.95680204	     44.95680204	     60.96815578	     60.96815578	      2.76307435	     50.99597937	     -9.56042239	      5.21997485	     -0.02578839	      1.48581788	     -2.76307435	    -50.99597937	      9.56042239	     -1.74637766	      0.02558040	     -0.48301696	     -3.31599387	     20.97615968	     -3.40468921	      0.94473225	     -0.02138609	     -1.00501789	      3.31599387	    -20.97615968	      3.40468921	      0.28075727	      0.00368718	     -0.29758878	    -38.13825401	      1.37341897	      4.79645110	     -0.02219299	     -3.03124439	      0.65831288	     38.13825401	     -1.37341897	     -4.79645110	      0.02596125	      1.38401036	     -0.15668003	   -138.29660731	      9.29923693	     20.44674151	      0.48300354	     -5.64950061	      5.57246677	    138.29660731	     -9.29923693	    -20.44674151	     -0.44894799	     -1.49931265	     -2.09082273	      0.00000000	      0.00000000	      0.00000000	      0.00000000	      0.00000000	      0.00000000	      0.00000000	      0.00000000	      0.00000000	      0.00000000	      0.00000000	      0.00000000	      0.00000000	      0.00000000	      0.00000000	      0.00000000	      0.00000000	      0.00000000	      0.00000000	      0.00000000	      0.00000000	      0.00000000	      0.00000000	      0.00000000	      0.00000000	      0.00000000	      0.00000000	      0.00000000	      0.00000000	      0.00000000	      0.00000000	      0.00000000	      0.00000000	      0.00000000	      0.00000000	      0.00000000	      0.00000000	      0.00000000	      0.00000000	      0.00000000	      0.00000000	      0.00000000	      0.00000000	      0.00000000	      0.00000000	      0.00000000	      0.00000000	      0.00000000	      0.00000000	      0.00000000	      0.00000000	      0.00000000	   -174.30599125	   -204.31328063	      0.00000000	      0.00000000	    116.99866359	      0.00000000
      0.00178622	     37.32449551	     44.63822659	    157.34533542	     12.80132993	     14.17686554	     20.57951709	    571.00269247	    161.32281153	    454.87844525	     39.10380740	     12.94948481	     23.17555211	     21.21789399	     30.99732778	     26.27580209	     95.17222323	      0.00000000	      8.14631585	     12.66578773	     27.10669544	     40.76626329	     74.17720652	     25.47877817	     23.75970441	    195.94376637	     40.62544410	     83.66860115	      6.30931859	     13.91212340	     14.36431609	     19.16061582	     53.57644902	     25.32479975	    132.22333901	     89.96568111	     14.92843335	     15.07238975	     48.06632378	     21.16174863	     45.52020636	     10.72978665	     26.68222909	      8.54600317	     37.44851634	     28.23429292	     30.20852474	     13.22934777	     14.44084320	     15.90273743	     42.05227346	     20.37687480	     37.66007209	     35.92754670	      7.55222757	     27.89615026	     20.55617120	     14.48540465	     12.14609493	     19.65367611	     12.57798800	     11.12712017	      7.75766864	     18.09848421	     27.51692474	     20.53793833	     63.87575550	     55.70488045	     18.05100962	      9.16053727	     20.03308494	     52.57178517	     32.45251200	     37.18966718	     39.83934762	     67.69987933	     31.64173578	    152.68257981	     92.43531592	     14.93806074	     15.27286946	     41.80540524	     21.61691345	     46.39761032	      8.85190932	     25.02828312	      7.95241140	    124.46317801	    124.46317801	     44.91657425	     44.91657425	     60.92481961	     60.92481961	      2.76307435	     50.99597937	     -9.56042239	      5.21997485	     -0.02578839	      1.48581788	     -2.76307435	    -50.99597937	      9.56042239	     -1.74637766	      0.02558040	     -0.48301696	     -3.31599387	     20.97615968	     -3.40468921	      0.94473225	     -0.02138609	     -1.00501789	      3.31599387	    -20.97615968	      3.40468921	      0.28075727	      0.00368718	     -0.29758878	   -377.50447960	     -2.08790194	     53.45739565	      0.32622228	    -32.45688318	      0.42947069	    377.50447960	      2.08790194	    -53.45739565	     -0.37459658	     13.84815727	     -1.49788615	   -746.61764537	     45.28984203	    105.45209555	      2.37633441	    -28.61873187	     27.37669910	    746.61764537	    -45.28984203	   -105.45209555	     -2.21580373	     -8.07951069	    -10.47885901	      0.00000000	      0.00000000	      0.00000000	      0.00000000	      0.00000000	      0.00000000	      0.00000000	      0.00000000	      0.00000000	      0.00000000	      0.00000000	      0.00000000	      0.00000000	      0.00000000	      0.00000000	      0.00000000	      0.00000000	      0.00000000	      0.00000000	      0.00000000	      0.00000000	      0.00000000	      0.00000000	      0.00000000	      0.00000000	      0.00000000	      0.00000000	      0.00000000	      0.00000000	      0.00000000	      0.00000000	      0.00000000	      0.00000000	      0.00000000	      0.00000000	      0.00000000	      0.00000000	      0.00000000	      0.00000000	      0.00000000	      0.00000000	      0.00000000	      0.00000000	      0.00000000	      0.00000000	      0.00000000	      0.00000000	      0.00000000	      0.00000000	      0.00000000	      0.00000000	      0.00000000	   -235.91772224	   -279.40654965	      0.00000000	      0.00000000	    116.99866359	      0.00000000
      0.00209139	     37.31260757	     44.61241668	    157.29738310	     12.78153466	     14.16447032	     20.57314559	    566.59582326	    162.49609832	    453.27037940	     41.33525208	     14.80948907	     23.16183860	     21.17441281	     30.98099686	     26.26557374	     95.15584113	      0.00000000	      8.13566183	     14.01854238	     27.09309338	     40.74580358	     74.15292743	     25.46413178	     23.75024441	    195.90747757	     40.61801144	     83.66182829	      5.34414019	     10.83952497	     11.21259935	     15.37760406	     50.59021093	     23.94015720	    127.03364013	     89.27501008	     14.93526250	     15.02722191	     49.82090018	     21.05142172	     45.29397222	     11.25869289	     27.11793352	      8.69886977	     37.43660093	     28.21529266	     30.19133966	     13.20908111	     14.42830635	     15.89743964	     42.04684652	     20.36971795	     37.65403236	     35.89546868	      7.53899516	     27.88052436	     20.51383439	     14.47575892	     12.14019309	     19.64868494	     12.57671576	     11.11368615	      7.74914754	     18.08822415	     27.50155704	     20.52818919	     63.84910244	     55.68912639	     18.03444866	      9.15808454	     20.03088691	     52.56264917	     32.43956611	     37.17675223	     39.82618000	     67.69450914	     31.63918135	    152.66592956	     92.43109746	     14.93979993	     15.27429808	     41.79683265	     21.61381641	     46.39449097	      8.84871930	     25.02093463	      7.94944781	    124.28354342	    124.28354342	     44.89690281	     44.89690281	     60.90368082	     60.90368082	      2.76307435	     50.99597937	     -9.56042239	      5.21997485	     -0.02578839	      1.48581788	     -2.76307435	    -50.99597937	      9.56042239	     -1.74637766	      0.02558040	     -0.48301696	     -3.31599387	     20.97615968	     -3.40468921	      0.94473225	     -0.02138609	     -1.00501789	      3.31599387	    -20.97615968	      3.40468921	      0.28075727	      0.00368718	     -0.29758878	   -561.51577155	      4.58528815	     58.37450661	      0.19571747	    -39.23981240	      3.98797517	    561.51577155	     -4.58528815	    -58.37450661	     -0.21275915	     19.69184355	     -2.61641928	   -969.98891154	     63.74333663	    101.32336678	      2.76260032	    -22.01399565	     37.66528700	    969.98891154	    -63.74333663	   -101.32336678	     -2.50386770	    -11.94041613	    -13.82739702	      0.00000000	      0.00000000	      0.00000000	      0.00000000	      0.00000000	      0.00000000	      0.00000000	      0.00000000	      0.00000000	      0.00000000	      0.00000000	      0.00000000	      0.00000000	      0.00000000	      0.00000000	      0.00000000	      0.00000000	      0.00000000	      0.00000000	      0.00000000	      0.00000000	      0.00000000	      0.00000000	      0.00000000	     14.55132365	     -0.70551305	     -2.05634292	     -0.03306816	     -0.03177534	     -0.22283663	    -14.55132365	      0.70551305	      2.05634292	      0.03527935	     -0.68386109	      0.48401224	      0.00000000	      0.00000000	      0.00000000	      0.00000000	      0.00000000	      0.00000000	      0.00000000	      0.00000000	      0.00000000	      0.00000000	      0.00000000	      0.00000000	      0.00000000	      0.00000000	      0.00000000	      0.00000000	      0.00000000	   -272.70857930	      0.00000000	      0.00000000	    116.99866359	      0.00000000
